<?xml version="1.0" encoding="utf-8"?>
<!-- Generator: Adobe Illustrator 17.0.0, SVG Export Plug-In . SVG Version: 6.00 Build 0)  -->
<!DOCTYPE svg PUBLIC "-//W3C//DTD SVG 1.1//EN" "http://www.w3.org/Graphics/SVG/1.1/DTD/svg11.dtd">
<svg version="1.1" id="레이어_1" xmlns="http://www.w3.org/2000/svg" xmlns:xlink="http://www.w3.org/1999/xlink" x="0px"
	 y="0px" width="504px" height="504px" viewBox="0 0 504 504" enable-background="new 0 0 504 504" xml:space="preserve">
<g id="Layer_2">
	<path d="M91,88c0,0,21,0,28,4.5c0,0,4,3.5,12,0.5c0,0,18,2.5,19,11.5c0,0,28.5,4,29.5,22.5l-11,3c0,0-0.5,4,3,5.5l-5,1.5v3.5l-7-2
		c0,0-4.5,2.5,9,12.5c0,0,4.5,13,60.5,14.5l-2,4c0,0,31,1.5,39.5,8c0,0,15,5,82-9.5c0,0,71-7,105.5,36c0,0,17.5,11.5,11,62.5
		c0,0-1,36.5,1.5,52.5l-3.5-3.5c0,0-2.5,8.5,3.5,14c0,0,2,28-0.5,36c0,0-2.5-4.5-5-4.5c0,0,1.5,15-4.5,23c0,0,1.5,20.5-5.5,37
		l-0.5,26c0,0-2.5,4.5-7,6.5L415,453c0,0,0-13,11-17.5l-26.5-2.5c0,0,1-15,11.5-16c0,0,4.5-24-12.5-23.5c0,0,6-28.5-7.5-30.5l-0.5-8
		l-8.5-1c0,0,5-36.5-9-14.5c0,0-5-6.5-5.5-14c0,0-9-2-12.5-16c0,0-6-1-6,4.5l-2-9.5c0,0-25,5-28.5,13c0,0-6-12-9.5,7c0,0-3,1-7.5-2
		c0,0-18,8.5-30.5,6.5c0,0-12-14-7,3.5c0,0-19.5,1-23-13.5c0,0-5.5,6.5,0.5,11.5c0,0-19,3.5-19-6.5c0,0-5.5,7-9.5,7c0,0-3.5,0-6-8.5
		c0,0-7.5,60,5,69.5c0,0-7.5,1.5-11.5-3.5c0,0-6,11.5-3,28c0,0-3.5-5-8-6.5c0,0-0.5,6,2,8c0,0-6.5-9-13.5,4.5c0,0-10.5,3.5-5.5,20
		l-11-1v9l-31,1.5c0,0-6-3-6.5-7c0,0-9.5,3-10.5-5c0,0,35-23.5,37-40.5c0,0,7.5-48.5,2.5-59.5l-1-6.5l-5-2V324c0,0-9-6-9.5,2
		c0,0-2.5-9-15.5-3c0,0-1-15-9-18c0,0-9-3-9-14l-10.5-1c0,0,3.5-3.5,3-9.5H90c0,0,4.5-13.5-3.5-19.5c0,0-6.5-6.5-6-14.5
		c0,0-6-1.5-6,1.5c0,0-2.5-1.5-0.5-14l-2.5,0.5V228l-3-2.5l-1-17.5c0,0-5-4-5-1.5c0,0,5-15.5-1-23.5c0,0-9.5,0-11-3.5
		c0,0,8-3.5,8-11c0,0-4.5,3-7.5,3c0,0,7.5-29.5,3-43l-6-2c0,0,3.5-4.5,4-13.5c0,0-6-2-6-0.5c0,0,3-11,8.5-12c0,0-11.5-8.5-18.5-8.5
		l17.5-7C53.5,85,85.5,70,91,88z"/>
</g>
<g id="Layer_3">
	<path fill="#FFFFFF" d="M102.5,135.5c0,0-7.5-11,1.5-19c0,0,18-15,8-21c0,0-13.5,1-14.5,8c0,0-1.5,9.5-9,13.5c0,0-29,14-26.5,32
		c0,0-2,11,8,14.5c0,0,14.5,12.5,19.5,11c0,0,2,2,2,4.5l-3.5-2l-1.5,3c0,0-2.5-5-5.5-4c0,0-6,1.5-8-2.5c0,0-4-7.5-7.5,3.5
		c0,0-1,19,3,19c0,0,4.5,3.5,7,0c0,0-2.5,12.5-2.5,17.5l4-3c0,0-3,12-2,15.5c0,0,5,2,5-0.5c0,0-2,12,0,14l4-0.5l0.5,11
		c0,0,8-6,8-8.5c0,0-4-4-4.5-1c0,0,5.5-16.5,6-20.5c0,0,4.5,13.5,3,22.5c0,0-8,10-7,13c0,0,2.5,4,5.5,1c0,0-1,13,0,18
		c0,0,3,2.5,4.5,0.5c0,0,3,6.5,1.5,8.5c0,0,4.5,4,7,1.5c0,0-0.5,20,8,7.5c0,0,2.5,18,7.5,18c0,0,1.5-8.5,5.5-10.5
		c0,0-3.5,12.5,0.5,12.5c0,0,10.5,10.5,19.5,3l2.5,12l2.5,3c0,0,9,48,3,75c0,0,1.5,18-17,27l-9.5,8c0,0-5.5,13.5,4,2.5
		c0,0,6.5-7,6.5,2l14.5-1l1.5-8.5h9c0,0,3-12-3-14c0,0,17,3,2-7c0,0-1.5-10,8.5-2l5,3c0,0-2-16.5,10-16.5c0,0,3-32.5-5-38.5
		c0,0,13.5,4.5,13.5,10.5c0,0-1.5-21.5-5.5-23l7.5-2L186,329.5l-0.5,14c0,0-8-1-10.5-15.5c0,0-12.5-1-13.5-17.5
		c0,0-11.5-16-11.5-25.5c0,0,3,5,6.5,5c0,0-7-30,1-39.5c0,0-0.5,22,5.5,21.5c0,0-1.5-19,5-27.5c0,0-10-19.5-6-31c0,0-8,1-7.5,12
		c0,0-3.5-11.5-3-16.5c0,0-5-14-6.5-1c0,0-3,10.5-8.5,10.5c0,0-3-1,1.5-9c0,0,4-5,5-14c0,0,7.5-18.5,17-19.5l-1,8.5
		c0,0,10.5-7,10.5-18.5c0,0-7,0.5-7,3.5l-1-16c0,0-5.5,11-8,21.5l-4,2.5c0,0-1.5-2.5-1.5-7.5c0,0-12,13-12,18.5c0,0-4.5,11-7.5,11
		V211c0,0-8-10.5-12.5,4c0,0,11-39-7-42c0,0,6,7,4.5,11.5c0,0-10-10.5-16-8c0,0-2.5-2,7-6.5C104.5,170,122.5,152,102.5,135.5z"/>
	<path fill="#FFFFFF" d="M123.25,440.5c0,0,28-20.5,26.75-32.25c0,0-15,20.5-29.5,29"/>
	<path fill="#FFFFFF" d="M428.5,430.25c0,0,6.5-7.5,2.25-22c0,0-8.75-14-7.5,9.75c0,0-16,2.5-19,7.25c0,0-1,12.5,9.25,1.75
		c0,0,3.25-1.25,3.25,3.75C416.75,430.75,425.75,432,428.5,430.25z"/>
	<path fill="#FFFFFF" d="M439.75,445c0,0-2.75-3-4.75-8.75c0,0-3-5.25-14.75,6.5c0,0-5,4.75,0.5,7.5c0,0,4.75,1.75,6.25,0
		c0,0,0.5-7,5-8c0,0,2.5,1.5,1.75,3.75c0,0-3.75,0.75-1,4.75c0,0,5.25,2,8.5-0.75C441.25,450,443.5,445.5,439.75,445z"/>
	<circle fill="#FFFFFF" cx="108.75" cy="125.25" r="2.25"/>
	<circle fill="#FFFFFF" cx="77.5" cy="117" r="2.25"/>
</g>
<g id="Layer_4">
	<ellipse cx="79.5" cy="139.5" rx="10" ry="9"/>
	<path d="M63,153c0,0,10.5-5.5,19,6c0,0,8,6.5,13.5,4c0,0,4,1.5-1,4c0,0-10,1.5-15.5-3c0,0-7.5-12-12.5-7.5
		C66.5,156.5,63,157.5,63,153z"/>
</g>
</svg>
